<svg xmlns="http://www.w3.org/2000/svg" fill="none" viewBox="0 0 616 13"><path fill="#9333EA" d="M615.703 4.72a2.269 2.269 0 0 0-.944-.716 3.763 3.763 0 0 0-.37-.117c-.306-.078-.535-.117-.752-.156-1.645-.208-3.073-.26-4.565-.352l-4.413-.169-8.799-.221-17.56-.234-35.106-.222-70.227-.13H288.328c-38.142 0-76.284 0-114.413.117h-13.734a5.731 5.731 0 0 1 1.951-.546C175.866.268 165.027-.24 124.003.099c-8.927.078-18.389 0-27.507 0-21.13-.065-56.67 0-78.005 0-3.226 0-6.49.078-9.794.182-1.657 0-3.315.104-5.1.221h-.664l-.765.105a4.32 4.32 0 0 0-.535.104h-.115L1.3.789a4.225 4.225 0 0 0-.42.247c-.176.127-.33.281-.46.456a2.097 2.097 0 0 0-.42 1.237 2.282 2.282 0 0 0 .484 1.445c.128.143.269.274.42.39l.243.156.166.078.344.118c.307.07.618.123.931.156.93.104 1.76.143 2.55.182 6.72.3 13.403.365 20.034.43l15.596.143-4.132.091-3.328.13h-3.991v.469h-.32l-.382.13c-.174.07-.338.167-.484.286-.296.231-.522.542-.65.899a2.124 2.124 0 0 0 .216 1.822l.727.833h1.543v.3h.459l.931-.078 1.9-.104h.408c95.833.924 191.653.26 287.575-.157h22.202c-2.193.26-3.443.547-3.609.873-.765 1.47 37.249 1.47 59.604 1.536l53.661.143H493.32c2.244 0 4.488 0 6.758-.117 1.135 0 2.257-.078 3.456-.17l.969-.09.345-.066h.28c.23-.325.128.547 1.505-1.367a8.14 8.14 0 0 0-.268-1.94l38.346-.064 35.056-.144 17.547-.169 8.799-.182 4.425-.17c.74 0 1.479-.077 2.257-.155.468-.03.932-.095 1.39-.196h.191l.281-.117c.305-.13.572-.335.778-.599.893-.013.523-3.372.268-2.734Z"/></svg>