<svg xmlns="http://www.w3.org/2000/svg" fill="none" viewBox="0 0 696 10"><path fill="#9333EA" d="M695.057 4.767a2.655 2.655 0 0 0-.612-.299l-.256-.08h-.178l-.473-.08c-.97-.127-1.71-.161-2.553-.219l-2.361-.115a506.048 506.048 0 0 0-9.332-.275c-6.213-.138-12.455-.238-18.727-.299l-37.901-.287-17.872-.08c3.102-.07 6.204-.138 9.28-.242h1.609c9.906-.23 6.383-.654 9.446-.988 13.711-1.493 2.886-1.952-38.105-1.7-8.936.058-18.369 0-27.484 0l-77.87-.069-77.526.253L104.84 0 61.437.207c-14.45.126-28.901.218-43.403.609-1.813 0-3.638.114-5.464.195-.919 0-1.838.092-2.795.172-.566.044-1.129.116-1.685.218a3.995 3.995 0 0 0-.486.138c-.218.08-.424.184-.612.31-.46 0-1.494 1.78-.562 2.93.315.408.76.72 1.277.895l.383.104c.383.08.625.115.893.149 1.915.138 3.728.172 5.604.253l2.783.115h2.72c7.237.103 14.475.218 21.7.23h9.422C20.23 6.925.686 7.936.009 9.108c-.677 1.171 37.224.884 59.564.792 142.886-.77 286.167-.643 429.435-.746l185.739-.218c5.694 0 10.915 0 14.847-.07h2.374c.434 0 .792 0 1.341-.103H693.781l.255-.057c.192-.046.379-.103.562-.172l.268-.104c.388-.196.706-.487.919-.838.702-1.448-.523-2.998-.728-2.826Z"/></svg>